<mxfile host="65bd71144e">
    <diagram id="LexumVh7fHeTcBnMJLg6" name="ページ1">
        <mxGraphModel dx="1116" dy="2499" grid="1" gridSize="10" guides="1" tooltips="1" connect="1" arrows="1" fold="1" page="1" pageScale="1" pageWidth="827" pageHeight="1169" math="0" shadow="0">
            <root>
                <mxCell id="0"/>
                <mxCell id="1" parent="0"/>
                <mxCell id="94" value="" style="whiteSpace=wrap;html=1;" parent="1" vertex="1">
                    <mxGeometry x="30" y="-50" width="1290" height="860" as="geometry"/>
                </mxCell>
                <mxCell id="20" value="" style="group" parent="1" vertex="1" connectable="0">
                    <mxGeometry x="70" y="140" width="1104.8409677419354" height="610" as="geometry"/>
                </mxCell>
                <mxCell id="28" value="" style="rounded=0;whiteSpace=wrap;html=1;" parent="20" vertex="1">
                    <mxGeometry x="-21.40258064516129" y="-33.888888888888886" width="991.4025806451612" height="643.8888888888888" as="geometry"/>
                </mxCell>
                <mxCell id="29" value="" style="group" parent="20" vertex="1" connectable="0">
                    <mxGeometry x="14.26" width="640" height="590" as="geometry"/>
                </mxCell>
                <mxCell id="95" value="" style="whiteSpace=wrap;html=1;fontSize=18;" parent="29" vertex="1">
                    <mxGeometry x="-14.26" y="47.2" width="654.26" height="542.8000000000001" as="geometry"/>
                </mxCell>
                <mxCell id="19" value="" style="aspect=fixed;html=1;points=[];align=center;image;fontSize=12;image=img/lib/azure2/containers/Container_Registries.svg;" parent="29" vertex="1">
                    <mxGeometry x="14.26" width="100.33" height="90" as="geometry"/>
                </mxCell>
                <mxCell id="8" value="ContainerApps" style="text;html=1;resizable=0;autosize=1;align=center;verticalAlign=middle;points=[];fillColor=none;strokeColor=none;rounded=0;fontSize=18;" parent="29" vertex="1">
                    <mxGeometry x="2" y="99.52425925925925" width="130" height="30" as="geometry"/>
                </mxCell>
                <mxCell id="41" value="" style="rounded=0;whiteSpace=wrap;html=1;dashed=1;" parent="29" vertex="1">
                    <mxGeometry x="315.74" y="140" width="274.26" height="430" as="geometry"/>
                </mxCell>
                <mxCell id="14" value="" style="group" parent="29" vertex="1" connectable="0">
                    <mxGeometry x="425.74064516129033" y="480.00370370370365" width="93.87096774193549" height="88.25925925925925" as="geometry"/>
                </mxCell>
                <mxCell id="2" value="" style="aspect=fixed;html=1;points=[];align=center;image;fontSize=12;image=img/lib/azure2/databases/SQL_Database.svg;" parent="14" vertex="1">
                    <mxGeometry x="-10" y="-30.02" width="64.52" height="86.02" as="geometry"/>
                </mxCell>
                <mxCell id="9" value="MySQL" style="text;html=1;resizable=0;autosize=1;align=center;verticalAlign=middle;points=[];fillColor=none;strokeColor=none;rounded=0;fontSize=18;" parent="14" vertex="1">
                    <mxGeometry x="-17" y="58.25925925925925" width="80" height="30" as="geometry"/>
                </mxCell>
                <mxCell id="104" value="" style="rounded=0;whiteSpace=wrap;html=1;dashed=1;" vertex="1" parent="29">
                    <mxGeometry x="315.74" y="140" width="274.26" height="280" as="geometry"/>
                </mxCell>
                <mxCell id="98" value="" style="shape=image;verticalLabelPosition=bottom;labelBackgroundColor=#ffffff;verticalAlign=top;aspect=fixed;imageAspect=0;image=data:image/png,iVBORw0KGgoAAAANSUhEUgAAANEAAADyCAMAAADk3NBFAAAAn1BMVEUAljn///8AlTVCqWIAjyEAkzLe7eIAjyQAkSldsnUAljPr9/DZ7N9Hp2EAki3M5dM1pVn5/fsAjBktoVHp6el2vIqDwpWu17ry+vWgz62NjY3n9OtTrm283sa228HT6toUm0Pa2tr09PTE4s1ktXyRyKCdzqukpKQOmkGNx55uuYN9v4+8vLyZmZnNzc2Kioqurq4AigjFxcWqqqrh4eEynkw4AAAKqElEQVR4nO2daVfqOhSGm9LagBClyKwMiiAiHs/w/3/bbVGBthl2ptL0+n44S9eyJ31o9ubNbgYP1U3epW/AuMohao8H/cG6XUpbJRCNBq0Ak5DgoDXo2m/OPtEYE+9bBI+tt2eb6KkXeeeKek+WW7RLNL0PfC8rP7ifWm3TJlF3EIReUWFgNZwsEg09QuE5hJM3tNesNaL5bcTgOYTT7dxWw5aIrldxPoBy4RSvru00bYfoGdMCKBdO+NlK2zaIHl6wkCcVfnmw0Lp5oqtGIWMzu17QuDLevmmiUZ+asZldL+iPDN+BYaIxYWVslggxbIyMEj0sYAGUFV4YNUYGia464ADKyo9NGiNjRKNdJBNAWYWROWNkikg+gLIiLVPGyAzRTY9neWAyZYxMEE2bigGUlR8YMUYGiAYaAZQVMWGMtImGLb0Aygp72sZIk4g/ZlBR0NEsGWkRjVZGAigrXWOkQ/QcmOxwJxG8vgiRmuWBSccYqRK1VS0PTBoVIzUiyTGDipJwUjNGSkS6lgcmxXGGAlG+TGpPUe+mBCJKmdSeknCSNkaSRN1BbDuAspIvwMoRDf0yAigr2QKsDJF5ywOT3DgDTiQsk9qTVAEWTAQpk9qTxDgDSAQtk9oTuAALImrDy6T25AcN0DgDQDTql5yxWQpjyDhDTLQuxfLARFpiYyQierI4ZlCReJzBJyrV8sAkHGfwiLrmqjwmJTBGHKJLWB6YiM8xRkwiE2VSe+KMMxhE1zaqPCbFLsDSibYXtTwwhXgLJpr51crYLGF/BiJKLM+lbxUsmjHKE41erVd5TCoMXvPGKEe0xlXN2CwVCrAZoqpZHphyxuiM6Kp6lgemxBhdUYi6O6cCKKsw2HXzROWUSe3pVID9JGpX2vLAFPXaJ6KxowGUlR+Mv4kG8aVvxpDiwSfRrC5ACdIwJRq5nRKyIqOEaFcroh3yui7aBLZw13twP2+fK3rwBnXqdEm323ord70PTeHK69Thy/Ukv+M1akbU+CGqun6Iqq8fourrh6j6+r8S+WEY6nD7epfLtSUmItGi0Wze3/oBUbqtMEiuv+9FJVl8IVFIBl/vcbvtdU+hZBQ0P1/GTUuahSMiws3MO9x5Q3J4GPqnWVfXt2U8JgER7qOchkTmk/YXmQ/kvgQkPlHYzAMlvacngRTmZh707CcIPhGhvbvtLsBIhan1T/bfHnKJyI4ClCC9QD9pUrjW/kPiEkWMuZRXwHpY+Fq49Nl6JHGJfNZclSdYWRkXJ4Y8QXNliIM4VllowiPyewwghNageIiKs6zaQKLofjZFo/Yzc4cHprhEt0wi1Id0vKg40eUK9FH4reNn0Zetj6oSoQ4g4akS+d5Z0od1h7OLVYm6C3HWUiWKM7MuXuU6njIRmor7nSJRLkVKvgxSJwJ8WyoSBbkvjVcph6tBhMaiu1Mk8nPXzKReB+kQoZ2gKTWiQrM3UulOiwh1+F1ckaiTu6Ytle30iAQJz0EiNOU+JBeJ0A3P4TlJhIYcJDeJeAnPUSJO8cBVInbCc5UIXbMqk84SMb/UnSCiLzsb0tt0gqhBmwSf7t3iLFEzpj+lJi3huUFEfOrawC6t0uoGURjSK0TXlIfkCJFHKMXwRPOiHXKFyIvoy36KCc8ZIi+gJ7xtPuGpEYUXIPKACU9E5JMIFxXke3X7d/GPIuZLUDUin57wUC7hCYii3ro9vS6qcBHlb6bzLaOArEbksRKen/m/+ESB5g58Xfq8e0UiVsLLFuq5RKxXORKimi9VIi8aiBvhEUX07CIn2qRhZSJWpzl3eByiQkJTUtfkM2J2m7MhLYcoMrMh8bb4kDSIfOp75/OExyHCZrbunRc9vwaROOFxiFpGgNDULJHQ4fHiqJpErIQ3+w4W672O8lpXj+iwgImiL4fHywxm9lZeG80Mn0g8h8frdSsjRJQJH7pE3ITH+4bNv8hT0phS3tAlYiW8UZrweES+r79h741RF3QUuae2Ng8Evs5v6T6lIbUApU/ETHixcDTRfFLf03s0Y0xeNEDEcnjbSDTiC6MYtwoijfzNvxT/KAgw47ZNELEc3uq3oVG51HJdI0SshEfZT6qilZOCwgWV6Lq4m5QrRKyEV5QzRB6mJzyHiaB1EIeIvBi0365LRIW53TUgWgAcgFNEoITnFpGH6TPeHSYCJDzXiLxANNh2jsjDgoTnHpEvSHjuEYkK2g4SUZaVuU7kBbydg50k4jo8ldnRlHJ9yUQeZp+DCFo3kbvmweoM9nsIESfhQdYfBblvALntf7hElLE2bB1eoZxzFGTFAMmtZwSsojm/a+7KxMILhC7w42ImPNAeX0Gm3We5XbT4KxMLrxbBO1oFjCOZQBeH54+YWgrmiL8ysdB5bsEdgG5ax7DPmzSOT0kuLXgCIi/K3RbtXQBLMeV8iCn08w7x+pAebu6llwQL1pVn34nIrTiOmvkwHIGXBiePKVh0blsK+6GK1v6fPyXhCqqcwlzSmsOXbx9uzZfKccfLRPszRI2vx3SjcAoNJrujf2j3yzn1RbyHRhi8rPqvTU9tf1IS4caqv+uvFpYOuisItM9JmEijiTAkpFL7nDimH6Lq64eo+vohqr5+iKqvH6LqKyGq3y6+9dtpmTJn2mWRgSe36UblhWfeqGZ7sHdruPN/DU9nqNUJGrPPU062dUGK02Wgh7c164udN2xSfnw8iQaheS1OC/osLdb1RCdUw1O3UP1ORju8fajZ6XWHrFezEwZRDU+BTDN5zU7qTFW301RT1e3EW1TDU4lR/U6OTlW3071RDU9gR5U0Ronl4U/v5RNVzxhhysozOaJ0qXN1wom0GFOopIjQqB9XI5zCuA9YYQ8gOhxhfvlw8mmWR5UIoYeXS4cTfgHuJAIkSuciXrLrhZgyu02TKDFGF6sY+THL8hz1b7n8J0uUjDMU5m+ZUHQrWFX/+Db5+/a2mfyRJbqMMSKeaFnT3SdKArZ/lCVKd7sqN5wElucA9Ovu+8f3vTQRQtMyjVFiecQ7U+yXyVNKtFki9PYmT5QYo9LGGZwxw0nLTdrv7tDjn/RZTR4ViMoqwJ7KpFx9LL873q/kp7d3JaLEGFmvGJ2XSbna330RLSdJXnh/UyNKjFHHajgJxwwnpRx3k81mnyY6tFQmSoyRxXGGeMxw0iZ9RpPl3d3mI/nt/Y86UWKMLE0QLpRJuXp7/+p1j7+Sh/T3nw5RWoA13/XCADJmOOluf8wMScKbqGTvc5k3RkEHNGY408efxC2kMZT8s3nXJUJoZjSTY09h98H9+xHuQ8EzFGWuYkTgY4aMNpvUdz++79+QESI0bRoJJ3aZVKjl38l+P/k4+DsTRGYKsMIxA1+Pj18/mCFKl3/phRNpae6Be5QpIjTaaYRTGAnHDGAZI0LoStUY+THY8gBkkEi1ABtJWB6AjBKpjDOAYwa4DBPJjjNkLQ9ApomScIIXYP2gwV5VryrzRPACLF6Y2XA5KxtEaQFWHE6qlkckO0TiAiygTKooS0SicYam5eHJGhFCQ+Z5teIyqYYsEqHugJrJAWVSHdkkohZgJao8arJLVCzARj2jloci20TZcQbBhi0PRfaJ0GjbiggJCYlaW5sB9KUSiBLdrAf9wRq0+aW2yiEqU/Uj+g9S9c9PUrusvQAAAABJRU5ErkJggg==;" vertex="1" parent="29">
                    <mxGeometry x="405.74" y="140" width="77.24" height="89.44" as="geometry"/>
                </mxCell>
                <mxCell id="99" value="Nginx" style="text;html=1;resizable=0;autosize=1;align=center;verticalAlign=middle;points=[];fillColor=none;strokeColor=none;rounded=0;fontSize=18;" vertex="1" parent="29">
                    <mxGeometry x="414.3649276201506" y="229.44142011834322" width="60" height="30" as="geometry"/>
                </mxCell>
                <mxCell id="40" value="" style="rounded=0;whiteSpace=wrap;html=1;dashed=1;" parent="20" vertex="1">
                    <mxGeometry x="31.29" y="138.96" width="268.71" height="291.04" as="geometry"/>
                </mxCell>
                <mxCell id="36" value="" style="group" parent="20" vertex="1" connectable="0">
                    <mxGeometry x="78.2258064516129" y="228.39703703703702" width="500" height="191.60444444444437" as="geometry"/>
                </mxCell>
                <mxCell id="37" value="" style="aspect=fixed;html=1;points=[];align=center;image;fontSize=12;image=img/lib/azure2/containers/Container_Instances.svg;" parent="36" vertex="1">
                    <mxGeometry x="43.76" y="71.6" width="73.28" height="79" as="geometry"/>
                </mxCell>
                <mxCell id="38" value="SlackAnalyticsFrontEnd" style="text;html=1;resizable=0;autosize=1;align=center;verticalAlign=middle;points=[];fillColor=none;strokeColor=none;rounded=0;fontSize=18;" parent="36" vertex="1">
                    <mxGeometry x="-24.59774193548387" y="150.60444444444443" width="210" height="30" as="geometry"/>
                </mxCell>
                <mxCell id="91" value="Nginx" style="text;html=1;resizable=0;autosize=1;align=center;verticalAlign=middle;points=[];fillColor=none;strokeColor=none;rounded=0;fontSize=18;" parent="36" vertex="1">
                    <mxGeometry x="50.399121168537675" y="-3.3956169186938183" width="60" height="30" as="geometry"/>
                </mxCell>
                <mxCell id="33" value="SlackAnalyticsAPI" style="text;html=1;resizable=0;autosize=1;align=center;verticalAlign=middle;points=[];fillColor=none;strokeColor=none;rounded=0;fontSize=18;" parent="36" vertex="1">
                    <mxGeometry x="301.77516129032267" y="161.60444444444437" width="160" height="30" as="geometry"/>
                </mxCell>
                <mxCell id="100" value="" style="edgeStyle=none;html=1;startArrow=classic;startFill=1;" edge="1" parent="36">
                    <mxGeometry relative="1" as="geometry">
                        <mxPoint x="83.7741935483871" y="81.60296296296298" as="targetPoint"/>
                        <mxPoint x="83.39370811149394" y="26.602962962962977" as="sourcePoint"/>
                    </mxGeometry>
                </mxCell>
                <mxCell id="102" value="" style="edgeStyle=none;html=1;startArrow=classic;startFill=1;entryX=0.55;entryY=-0.083;entryDx=0;entryDy=0;entryPerimeter=0;" edge="1" parent="36" target="32">
                    <mxGeometry relative="1" as="geometry">
                        <mxPoint x="378.78419354838695" y="250.562962962963" as="targetPoint"/>
                        <mxPoint x="384.7637081114939" y="26.602962962962977" as="sourcePoint"/>
                    </mxGeometry>
                </mxCell>
                <mxCell id="51" value="Azure" style="text;html=1;resizable=0;autosize=1;align=center;verticalAlign=middle;points=[];fillColor=none;strokeColor=none;rounded=0;fontSize=18;" parent="20" vertex="1">
                    <mxGeometry x="855.1240322580644" y="-5" width="60" height="30" as="geometry"/>
                </mxCell>
                <mxCell id="56" style="edgeStyle=none;html=1;entryX=-0.01;entryY=0.519;entryDx=0;entryDy=0;entryPerimeter=0;startArrow=classic;startFill=1;" parent="20" source="32" target="42" edge="1">
                    <mxGeometry relative="1" as="geometry"/>
                </mxCell>
                <mxCell id="57" value="" style="edgeStyle=none;html=1;startArrow=none;startFill=0;" parent="20" source="43" target="3" edge="1">
                    <mxGeometry relative="1" as="geometry"/>
                </mxCell>
                <mxCell id="58" value="" style="edgeStyle=none;html=1;startArrow=none;startFill=0;" parent="20" source="10" target="105" edge="1">
                    <mxGeometry relative="1" as="geometry">
                        <mxPoint x="805.7258064516129" y="395.3703703703703" as="targetPoint"/>
                    </mxGeometry>
                </mxCell>
                <mxCell id="59" value="" style="edgeStyle=none;html=1;startArrow=none;startFill=0;" parent="20" source="45" target="32" edge="1">
                    <mxGeometry relative="1" as="geometry"/>
                </mxCell>
                <mxCell id="61" value="" style="edgeStyle=none;html=1;startArrow=classic;startFill=1;" parent="20" source="33" target="2" edge="1">
                    <mxGeometry relative="1" as="geometry"/>
                </mxCell>
                <mxCell id="97" value="" style="edgeStyle=none;html=1;startArrow=classic;startFill=1;endArrow=none;" parent="20" source="32" target="33" edge="1">
                    <mxGeometry relative="1" as="geometry">
                        <mxPoint x="491.56301520738134" y="478.99703703703653" as="sourcePoint"/>
                        <mxPoint x="470.26370340705625" y="593.4637037037037" as="targetPoint"/>
                    </mxGeometry>
                </mxCell>
                <mxCell id="47" value="" style="group" parent="20" vertex="1" connectable="0">
                    <mxGeometry x="769.9979032258065" y="430.0003703703703" width="109.51612903225806" height="90.51851851851852" as="geometry"/>
                </mxCell>
                <mxCell id="45" value="" style="aspect=fixed;html=1;points=[];align=center;image;fontSize=12;image=img/lib/azure2/general/Power.svg;" parent="47" vertex="1">
                    <mxGeometry x="14.55" y="-10" width="50.47" height="78" as="geometry"/>
                </mxCell>
                <mxCell id="46" value="Functions" style="text;html=1;resizable=0;autosize=1;align=center;verticalAlign=middle;points=[];fillColor=none;strokeColor=none;rounded=0;fontSize=18;" parent="47" vertex="1">
                    <mxGeometry y="60.51851851851852" width="90" height="30" as="geometry"/>
                </mxCell>
                <mxCell id="90" value="" style="shape=image;verticalLabelPosition=bottom;labelBackgroundColor=#ffffff;verticalAlign=top;aspect=fixed;imageAspect=0;image=data:image/png,iVBORw0KGgoAAAANSUhEUgAAANEAAADyCAMAAADk3NBFAAAAn1BMVEUAljn///8AlTVCqWIAjyEAkzLe7eIAjyQAkSldsnUAljPr9/DZ7N9Hp2EAki3M5dM1pVn5/fsAjBktoVHp6el2vIqDwpWu17ry+vWgz62NjY3n9OtTrm283sa228HT6toUm0Pa2tr09PTE4s1ktXyRyKCdzqukpKQOmkGNx55uuYN9v4+8vLyZmZnNzc2Kioqurq4AigjFxcWqqqrh4eEynkw4AAAKqElEQVR4nO2daVfqOhSGm9LagBClyKwMiiAiHs/w/3/bbVGBthl2ptL0+n44S9eyJ31o9ubNbgYP1U3epW/AuMohao8H/cG6XUpbJRCNBq0Ak5DgoDXo2m/OPtEYE+9bBI+tt2eb6KkXeeeKek+WW7RLNL0PfC8rP7ifWm3TJlF3EIReUWFgNZwsEg09QuE5hJM3tNesNaL5bcTgOYTT7dxWw5aIrldxPoBy4RSvru00bYfoGdMCKBdO+NlK2zaIHl6wkCcVfnmw0Lp5oqtGIWMzu17QuDLevmmiUZ+asZldL+iPDN+BYaIxYWVslggxbIyMEj0sYAGUFV4YNUYGia464ADKyo9NGiNjRKNdJBNAWYWROWNkikg+gLIiLVPGyAzRTY9neWAyZYxMEE2bigGUlR8YMUYGiAYaAZQVMWGMtImGLb0Aygp72sZIk4g/ZlBR0NEsGWkRjVZGAigrXWOkQ/QcmOxwJxG8vgiRmuWBSccYqRK1VS0PTBoVIzUiyTGDipJwUjNGSkS6lgcmxXGGAlG+TGpPUe+mBCJKmdSeknCSNkaSRN1BbDuAspIvwMoRDf0yAigr2QKsDJF5ywOT3DgDTiQsk9qTVAEWTAQpk9qTxDgDSAQtk9oTuAALImrDy6T25AcN0DgDQDTql5yxWQpjyDhDTLQuxfLARFpiYyQierI4ZlCReJzBJyrV8sAkHGfwiLrmqjwmJTBGHKJLWB6YiM8xRkwiE2VSe+KMMxhE1zaqPCbFLsDSibYXtTwwhXgLJpr51crYLGF/BiJKLM+lbxUsmjHKE41erVd5TCoMXvPGKEe0xlXN2CwVCrAZoqpZHphyxuiM6Kp6lgemxBhdUYi6O6cCKKsw2HXzROWUSe3pVID9JGpX2vLAFPXaJ6KxowGUlR+Mv4kG8aVvxpDiwSfRrC5ACdIwJRq5nRKyIqOEaFcroh3yui7aBLZw13twP2+fK3rwBnXqdEm323ord70PTeHK69Thy/Ukv+M1akbU+CGqun6Iqq8fourrh6j6+r8S+WEY6nD7epfLtSUmItGi0Wze3/oBUbqtMEiuv+9FJVl8IVFIBl/vcbvtdU+hZBQ0P1/GTUuahSMiws3MO9x5Q3J4GPqnWVfXt2U8JgER7qOchkTmk/YXmQ/kvgQkPlHYzAMlvacngRTmZh707CcIPhGhvbvtLsBIhan1T/bfHnKJyI4ClCC9QD9pUrjW/kPiEkWMuZRXwHpY+Fq49Nl6JHGJfNZclSdYWRkXJ4Y8QXNliIM4VllowiPyewwghNageIiKs6zaQKLofjZFo/Yzc4cHprhEt0wi1Id0vKg40eUK9FH4reNn0Zetj6oSoQ4g4akS+d5Z0od1h7OLVYm6C3HWUiWKM7MuXuU6njIRmor7nSJRLkVKvgxSJwJ8WyoSBbkvjVcph6tBhMaiu1Mk8nPXzKReB+kQoZ2gKTWiQrM3UulOiwh1+F1ckaiTu6Ytle30iAQJz0EiNOU+JBeJ0A3P4TlJhIYcJDeJeAnPUSJO8cBVInbCc5UIXbMqk84SMb/UnSCiLzsb0tt0gqhBmwSf7t3iLFEzpj+lJi3huUFEfOrawC6t0uoGURjSK0TXlIfkCJFHKMXwRPOiHXKFyIvoy36KCc8ZIi+gJ7xtPuGpEYUXIPKACU9E5JMIFxXke3X7d/GPIuZLUDUin57wUC7hCYii3ro9vS6qcBHlb6bzLaOArEbksRKen/m/+ESB5g58Xfq8e0UiVsLLFuq5RKxXORKimi9VIi8aiBvhEUX07CIn2qRhZSJWpzl3eByiQkJTUtfkM2J2m7MhLYcoMrMh8bb4kDSIfOp75/OExyHCZrbunRc9vwaROOFxiFpGgNDULJHQ4fHiqJpErIQ3+w4W672O8lpXj+iwgImiL4fHywxm9lZeG80Mn0g8h8frdSsjRJQJH7pE3ITH+4bNv8hT0phS3tAlYiW8UZrweES+r79h741RF3QUuae2Ng8Evs5v6T6lIbUApU/ETHixcDTRfFLf03s0Y0xeNEDEcnjbSDTiC6MYtwoijfzNvxT/KAgw47ZNELEc3uq3oVG51HJdI0SshEfZT6qilZOCwgWV6Lq4m5QrRKyEV5QzRB6mJzyHiaB1EIeIvBi0365LRIW53TUgWgAcgFNEoITnFpGH6TPeHSYCJDzXiLxANNh2jsjDgoTnHpEvSHjuEYkK2g4SUZaVuU7kBbydg50k4jo8ldnRlHJ9yUQeZp+DCFo3kbvmweoM9nsIESfhQdYfBblvALntf7hElLE2bB1eoZxzFGTFAMmtZwSsojm/a+7KxMILhC7w42ImPNAeX0Gm3We5XbT4KxMLrxbBO1oFjCOZQBeH54+YWgrmiL8ysdB5bsEdgG5ax7DPmzSOT0kuLXgCIi/K3RbtXQBLMeV8iCn08w7x+pAebu6llwQL1pVn34nIrTiOmvkwHIGXBiePKVh0blsK+6GK1v6fPyXhCqqcwlzSmsOXbx9uzZfKccfLRPszRI2vx3SjcAoNJrujf2j3yzn1RbyHRhi8rPqvTU9tf1IS4caqv+uvFpYOuisItM9JmEijiTAkpFL7nDimH6Lq64eo+vohqr5+iKqvH6LqKyGq3y6+9dtpmTJn2mWRgSe36UblhWfeqGZ7sHdruPN/DU9nqNUJGrPPU062dUGK02Wgh7c164udN2xSfnw8iQaheS1OC/osLdb1RCdUw1O3UP1ORju8fajZ6XWHrFezEwZRDU+BTDN5zU7qTFW301RT1e3EW1TDU4lR/U6OTlW3071RDU9gR5U0Ronl4U/v5RNVzxhhysozOaJ0qXN1wom0GFOopIjQqB9XI5zCuA9YYQ8gOhxhfvlw8mmWR5UIoYeXS4cTfgHuJAIkSuciXrLrhZgyu02TKDFGF6sY+THL8hz1b7n8J0uUjDMU5m+ZUHQrWFX/+Db5+/a2mfyRJbqMMSKeaFnT3SdKArZ/lCVKd7sqN5wElucA9Ovu+8f3vTQRQtMyjVFiecQ7U+yXyVNKtFki9PYmT5QYo9LGGZwxw0nLTdrv7tDjn/RZTR4ViMoqwJ7KpFx9LL873q/kp7d3JaLEGFmvGJ2XSbna330RLSdJXnh/UyNKjFHHajgJxwwnpRx3k81mnyY6tFQmSoyRxXGGeMxw0iZ9RpPl3d3mI/nt/Y86UWKMLE0QLpRJuXp7/+p1j7+Sh/T3nw5RWoA13/XCADJmOOluf8wMScKbqGTvc5k3RkEHNGY408efxC2kMZT8s3nXJUJoZjSTY09h98H9+xHuQ8EzFGWuYkTgY4aMNpvUdz++79+QESI0bRoJJ3aZVKjl38l+P/k4+DsTRGYKsMIxA1+Pj18/mCFKl3/phRNpae6Be5QpIjTaaYRTGAnHDGAZI0LoStUY+THY8gBkkEi1ABtJWB6AjBKpjDOAYwa4DBPJjjNkLQ9ApomScIIXYP2gwV5VryrzRPACLF6Y2XA5KxtEaQFWHE6qlkckO0TiAiygTKooS0SicYam5eHJGhFCQ+Z5teIyqYYsEqHugJrJAWVSHdkkohZgJao8arJLVCzARj2jloci20TZcQbBhi0PRfaJ0GjbiggJCYlaW5sB9KUSiBLdrAf9wRq0+aW2yiEqU/Uj+g9S9c9PUrusvQAAAABJRU5ErkJggg==;" parent="20" vertex="1">
                    <mxGeometry x="120.00000000000003" y="138.95999999999998" width="77.24" height="89.44" as="geometry"/>
                </mxCell>
                <mxCell id="32" value="" style="aspect=fixed;html=1;points=[];align=center;image;fontSize=12;image=img/lib/azure2/containers/Container_Instances.svg;" parent="20" vertex="1">
                    <mxGeometry x="419.99870967741936" y="312.167037037037" width="79.98" height="86.23" as="geometry"/>
                </mxCell>
                <mxCell id="103" value="" style="edgeStyle=none;html=1;startArrow=classic;startFill=1;" edge="1" parent="20" source="41">
                    <mxGeometry relative="1" as="geometry">
                        <mxPoint x="300" y="340" as="targetPoint"/>
                        <mxPoint x="203.21951456310683" y="107.16999999999999" as="sourcePoint"/>
                    </mxGeometry>
                </mxCell>
                <mxCell id="105" value="" style="sketch=0;aspect=fixed;html=1;points=[];align=center;image;fontSize=12;image=img/lib/mscae/Logic_Apps.svg;" vertex="1" parent="20">
                    <mxGeometry x="766.5277419354838" y="280.0037037037037" width="88.46" height="69" as="geometry"/>
                </mxCell>
                <mxCell id="106" value="LogicApps" style="text;html=1;resizable=0;autosize=1;align=center;verticalAlign=middle;points=[];fillColor=none;strokeColor=none;rounded=0;fontSize=18;" vertex="1" parent="20">
                    <mxGeometry x="758.8777419354839" y="349.0592592592593" width="100" height="30" as="geometry"/>
                </mxCell>
                <mxCell id="42" value="" style="sketch=0;aspect=fixed;html=1;points=[];align=center;image;fontSize=12;image=img/lib/mscae/Logic_Apps.svg;" parent="20" vertex="1">
                    <mxGeometry x="764.6477419354839" y="0.0037037037036924403" width="88.46" height="69" as="geometry"/>
                </mxCell>
                <mxCell id="43" value="LogicApps" style="text;html=1;resizable=0;autosize=1;align=center;verticalAlign=middle;points=[];fillColor=none;strokeColor=none;rounded=0;fontSize=18;" parent="20" vertex="1">
                    <mxGeometry x="756.9977419354839" y="69.05925925925925" width="100" height="30" as="geometry"/>
                </mxCell>
                <mxCell id="3" value="" style="aspect=fixed;html=1;points=[];align=center;image;fontSize=12;image=img/lib/azure2/general/Storage_Queue.svg;" parent="20" vertex="1">
                    <mxGeometry x="766.1712523719165" y="138.95888888888885" width="82.97" height="67.41" as="geometry"/>
                </mxCell>
                <mxCell id="10" value="QueueStorage" style="text;html=1;resizable=0;autosize=1;align=center;verticalAlign=middle;points=[];fillColor=none;strokeColor=none;rounded=0;fontSize=18;" parent="20" vertex="1">
                    <mxGeometry x="743.8764136622391" y="212.69962962962958" width="130" height="30" as="geometry"/>
                </mxCell>
                <mxCell id="24" value="" style="group" parent="1" vertex="1" connectable="0">
                    <mxGeometry x="195" y="-30" width="215" height="150" as="geometry"/>
                </mxCell>
                <mxCell id="21" value="" style="shape=actor;whiteSpace=wrap;html=1;" parent="24" vertex="1">
                    <mxGeometry width="40" height="60" as="geometry"/>
                </mxCell>
                <mxCell id="22" value="" style="shape=actor;whiteSpace=wrap;html=1;" parent="24" vertex="1">
                    <mxGeometry x="40" width="40" height="60" as="geometry"/>
                </mxCell>
                <mxCell id="23" value="Users" style="text;html=1;resizable=0;autosize=1;align=center;verticalAlign=middle;points=[];fillColor=none;strokeColor=none;rounded=0;fontSize=18;" parent="24" vertex="1">
                    <mxGeometry x="10" y="55" width="60" height="30" as="geometry"/>
                </mxCell>
                <mxCell id="49" value="" style="edgeStyle=none;html=1;startArrow=classic;startFill=1;entryX=0.5;entryY=0;entryDx=0;entryDy=0;" parent="1" source="23" edge="1" target="90">
                    <mxGeometry relative="1" as="geometry">
                        <mxPoint x="235" y="200" as="targetPoint"/>
                    </mxGeometry>
                </mxCell>
                <mxCell id="30" value="" style="aspect=fixed;html=1;points=[];align=center;image;fontSize=12;image=img/lib/azure2/general/Resource_Groups.svg;" parent="1" vertex="1">
                    <mxGeometry x="910" y="56" width="89.25" height="84" as="geometry"/>
                </mxCell>
                <mxCell id="55" value="" style="group" parent="1" vertex="1" connectable="0">
                    <mxGeometry x="1100" y="290" width="303.57142857142856" height="188" as="geometry"/>
                </mxCell>
                <mxCell id="52" value="" style="shape=image;verticalLabelPosition=bottom;labelBackgroundColor=#ffffff;verticalAlign=top;aspect=fixed;imageAspect=0;image=data:image/png,iVBORw0KGgoAAAANSUhEUgAAAOEAAADhCAMAAAAJbSJIAAAA6lBMVEX///8utn3ssi7gHlo2xfDfDVQcs3beAEkgwu/rsCPrrAiv3sex5fjyzYb98fX++/PS7eDS8Pvqf5kAsHBWzPL76OyI2fX89en23K/eAEzfAFDeAEsTwO/fElXssCby+/7++PqW3fbz+vd71fSm28LlU3rxrLzf8unE6/rC5tX42eDnZYb45cL00pTtkafztsX669HwwWRNyvF8zKfh9fxsx55GvImV1bc5uYO66Pnm9e5ZwZPunbD12KP66s7ttj3xyHnkSXThLmPuu1D1xM+K0bDpdpP30NrkTHXvvVfsjKPwxG334LfiOmot+IsYAAALQ0lEQVR4nO2ceVPbPBCHncuJTTgTjri5uCE0pNwBAqHQwltKv//Xee0cxJYledeW5Jjxb4YZ/ogiPVnd2l1NS4XRZXmjep7Pn1d3t49auKIrexf31/3+9f3vhUM5jYuuy+18qVTKj2X/Vy2Dix5f6bYyIzn/XaxIbGdYrVbrU7r8J+U2yJB7U7hP6Xr/WHaDkWpV63mKSqVgOx5nSL4x5PVcddYyab4ZYzXAjFcVGp+jyo2axkO0ywR0GFc5Je/oBpyY8V4ZQYCqPMB8vn7ELHnI4XMQ+zsKMdgKAOQgBgA6mgdEbhedIF5SS+4EA2auFdNQxJ5k3KIWvQ4GzOgXinl8uqSuEqRKu5SiNwAT2jNq3AvjOQSQOhTvmMsEYcUYqFw6AvVRaj+9ggFm9HiXRaAJ7X56S5Q8BJrQRoxzPl0FmzB/ThS9Ao3CEeFeLGxj7YIB8yXvirEDNmEm04+JzhHchPnStqfkMdiE9nQa3x4cPs/4uim8k8baTbcxhCXPIQPOZ+sqLkCtigD0njEwwzDOJREDmPcchlcQndQeiLGtF6Ad2yehe6rBTDS2De9iAmzhCDdcRRdwhHFdTKWEySdEjsMkEmIAk0mI2JYmlBC3p0kiIeLwlFBCzNkioYSYgZhMQkw3TSYh/J4msYSr8EU/oYSII2JSCVvgkZhUQu0W2k8TS6htAK2YXELI81rCCYGISSbUtiFjMdGE2lEp2IzJJrTnm0AzJp1Qu9z1+UR9MUJ78S9X6yV2d/0ChLZaR+WN3Spd5+4b4cQSgpUSpoTzr5QwJZx/pYQp4fwrJZRPeLkaRZd0n2B5hDuHKysrYHeGVnk375wRIqme3y3zwhAEEh7e3OsVJ9BGr2SuFoIxb/2hLyFVqlfZTvqiCHduMhX3V+mV6wUuXzkvCG8CmSe9SgUT/q74v0fX2YyXYvlGjOf0ISmEcMEXLzX5eJ/hzAi6MUOrTo18EkHIjidiBBQBL3bRovrpRyfc6fO+Qqe4MwZGvghFjEx4F/AF/pgpeYBUxKiEweE2JCL0eSUk4jbZwqiEgHAbb7QN+IkspOpkhF5EwgtIcXe0DfyZM7SEEq7APIxdgRqyptGZyH4ajRBa7LOfwqKzoqneEkcILvwZxoBywAspwoiRCOHlJqsizhE2NKIwQoSP+MQFHhYjGZnwSBQhNOgt8xmLgoqaCK9dUYSYUI3Rsq9gqRhLECEqVGO0YKCcRCPIE7wWgRAWXOsuqWYYEgMxAiFiGNolndMwypU5CmFZDCEkAnxW8remZjUcEQp6A8aVvFBJKOgdHxX1NgrsSwmFEUbopYdhCUe9VO7h10Xonmlw0XmVu9CEzkyjbLVw350Cspq4CbXQhM62LZYVHzcj9sMTOiNYzdGCPFxgVjXvjQuKcHy4QEQURJH3wg2z99KPQxOO09uo2dQQWb8w+2dvoDOGcJI1RMUlRj5f17xCtNN7f40hnE7CKg6IvlvhPbARKyuhCae3wojAl9Dyp4oCExKpohCEs99GvhEpF/tQIxImxBDOLvblj8QS5cm7D2ql7xUJTujeCsmeTuu0t2BYliFfhiF4biJPShSZT0+MJ0RYPyX7KJyQfHySClilAkIeWCr+1DRQQjIzUUsiIJkiaqagPDy012oooS8fSutc1is3y4LBVqRYEEhIzykp5wWqvkGpaqY9ToPp6fYghLRnfEe3gNgepEolttfQWIcsjwP9np53J5iQ41HT2hDlEDXhq/uetynypxF2Wplh5UsMItQrF7yURK0NTtQLEg+aKNlm9Lpu8X23uIS6rv8OdG072shH9dtzdL7By65LauXmWp+oot/v8RpZ0Zmq9C+AmTJbq0e35Qi6PbpE5it3dHi8sLBwHOhEubfA0PHhPCSsTZUqVapUqVKlSiVOnd7gfY2u1yVuyfVfB6dra++DXqeNrXTz46G7GEXdrcdlSEVLB/vWN8sqMFRcZxd9W8sVxyUtq1b7b8D5KKHljzPDNCLLNIfdHwFVdU6KViPHEZtw0KgV3J9sWMX9NxDf5pNpNLNiZJjDD05V6ydFLh6H8MCy/B9uFPeD7bhs8wnCG6lpZr+z6hoE8rEI1//V6B9vFE8DAD/E8o1kntHr2me0Mpiwx/lprJ9tHuCTKZzPlmFQhuPSc4HZygDCQZFXopHj9NQX8QYcy/T11HYuuIcyCE+5gDZigYk4lAVIQXyGAVIIDwIAHSu26YB/5AHaiN6OegLqojTCt0BAG/EnFXBRJqCN6F7/DyCTDJWwDbK9RZtRv0uZZGZqvszqWgLYgUH4CjM+bYKSa0Fb5ha+j/qa2gH+No191X10hLiMbCaFcB84QeWK5AZuWXIfdWR0cT2NQgj/bXxG7Mo3oW3EcV1thAkJwrXQ3Vv+KHRkjHfhPcqeGdhQhPGtgQfwUUEntafTP6PKTqBjyUf49g1esPGfh1DBPONoPNdgTOglHGCK1tpuwqESwKz5aNe1jhmGXkKU9WsdV0kVM6kj48Gu7Fd4Gz5jSlo9V8kfigibT5pzOg9NiLK+Z6qRvWP7JHzBDiYPIWqZyRXeXYQfaiaabHZoV3aKmPK9hIjtrEO45iLcUkWYdQhD2zAJhEN8L10SQqiql47GIWpLkytqQgiVzaXOrdsb+PTr6FkM4aaq9XDRmRERW69c41UMoZqN93Tr/Q/RTOtAEOGZqGt8vsxNpzLMcuFZ8KMQqppMR5UhjviNf5ogQjUb09Ew1DDbS08njUSoppuOOylmZ+o9AUUiVHEEnhyAbUEbSVx7RiLUXuQbcXbt3QMuGJYmkFD+ot90PbLBLgWLPZGE2pPs6XQ6CkdthexrrBOiiREJNcnd1HXlrYHeVxrPZAujEsrduhlP3toC38gaBZ+fSVRCqSd94w9ZG/8hl/rMGZlQIqIf0HmM5zTPeqZ4CkUntFdFOYPR/EupTOvkmCt/8ZVWQAChtinjobtpPtDqsrVG96mwGr+oHxdBqGld0e4mTfNlk16VNnIZIg8aDYt4cRBNKNhlqGkOmQ5DY8b33Mzvq1Gwij8PmJ8VRGgzPgxNQ4DjV9Mwzb+PXL6ROoOT56Ij6+daj+eKKIzQ1ubW09CMKOOsC8Cbqr3Ed7MUTTjWchTB4cASTzhvSglTwvlXSpgSzr9SwpRw/hWBcHmTIRl7r/CK8srN3j9n/z4Exb0ok6R3fPsMlO3Ohy0leioY5tM8MEr1xTCYdy0KJdnbxHyJ3Yyy/WmatNgepZLvMWTGjKjAJypmRBVeX0asY1EFoTvwRb2UeO6ZXWb98qXGN9FkX9FLlxrCJvUZSY0U+ZfGaERFhFPHpq9LmDW+PKGJeG9JJqER24KhirBJ8Tr4WoTTMMKvTBjX5lQdYVwrojrCuM5QX59QWWRXfOdgVdF58e1MVUVYxrZa4KJkv7mjZDUU4TAuQGSks6foEOEBRfrCKlQHE63uTaqAiVY3eNm7JAthQm8wCmogxralsfWOyBpBeJEhrjEYmbuUCB7L3yAd/R/gt218b0rJAs+mxQ5REhza1YxvJnUENaLPhPD0LfGaUNPWYAsGLYsS0ISxHX+nAgHWaI7UsOi1OC+Ex4LEZxb8WaIcdQGIZoxr4VTcOI2R/PFEE50FDsVYXy0+FRBtk2vkmA7VQUn3zCeFHBzxY6YKtHCbqc64HdWM77ab0FuNvSzW/OuEW4tsxKY3vC5eLe0z9uCFIjtcY6zvBqOnmsPYZ1GPerSgqULxJDimwTYjhXEu3GkI9Z6LZKbkV3KrRtfyoumFNExj/vgcdU7/fatZllWw/4qFk14bXvT7U9Y0P1NWL8b2FBOsdqc3OD0dHPyC5/KeavNx66Hbffj4EbsnVNL0P2apxh1t6+kdAAAAAElFTkSuQmCC;" parent="55" vertex="1">
                    <mxGeometry width="98" height="98" as="geometry"/>
                </mxCell>
                <mxCell id="53" value="SlackAPI" style="text;html=1;resizable=0;autosize=1;align=center;verticalAlign=middle;points=[];fillColor=none;strokeColor=none;rounded=0;fontSize=18;" parent="55" vertex="1">
                    <mxGeometry x="3.5714285714285836" y="93" width="90" height="30" as="geometry"/>
                </mxCell>
                <mxCell id="60" style="edgeStyle=none;html=1;entryX=0;entryY=0.5;entryDx=0;entryDy=0;startArrow=classic;startFill=1;" parent="1" source="45" target="52" edge="1">
                    <mxGeometry relative="1" as="geometry"/>
                </mxCell>
                <mxCell id="108" value="" style="edgeStyle=none;html=1;startArrow=none;startFill=0;" edge="1" parent="1">
                    <mxGeometry relative="1" as="geometry">
                        <mxPoint x="885.0100140653431" y="557.0037037037036" as="targetPoint"/>
                        <mxPoint x="884.2015127362133" y="519.6996296296297" as="sourcePoint"/>
                    </mxGeometry>
                </mxCell>
            </root>
        </mxGraphModel>
    </diagram>
</mxfile>